<svg version="1.2" xmlns="http://www.w3.org/2000/svg" viewBox="0 0 57 54" width="57" height="54">
	<title>01</title>
	<style>
		.s0 { fill: #1d381d } 
	</style>
	<path fill-rule="evenodd" class="s0" d="m56.5 19.2c-0.6 1.8-2.4 3.1-4.5 3.1q0 0 0 0h-7.1c-1.4 0-2.8-0.6-3.7-1.7-0.9-1-1.2-2.4-1-3.7q0 0 0-0.1l0.4-1.4c-2.1-0.9-6.8-2.8-12.1-2.8-5.4 0-10.1 1.8-12.1 2.8l0.3 1.4q0 0 0.1 0.1c0.2 1.3-0.2 2.6-1.1 3.7-0.9 1-2.2 1.6-3.6 1.6q0 0 0 0h-7.1c-2.1 0-3.9-1.3-4.6-3.1-0.9-2.9-0.3-5.9 1.8-8.7 2.2-2.8 6-5.4 10.8-7.3 4.7-1.8 10.3-2.8 15.5-2.8 5.3 0 10.8 1.1 15.5 2.9 4.8 1.8 8.6 4.4 10.8 7.3 2.1 2.8 2.7 5.8 1.7 8.7zm-4.5-6.8c-3.8-5.1-13.7-8.8-23.5-8.8q0 0 0 0c-9.8 0-19.7 3.7-23.6 8.8q-2.2 2.9-1.2 5.7c0.1 0.5 0.7 0.8 1.3 0.8h7.1c0.4 0 0.8-0.1 1-0.4 0.2-0.2 0.4-0.5 0.3-1l-0.7-2.6c-0.2-0.7 0.2-1.4 0.8-1.8 0.3-0.2 6.8-3.8 14.9-3.8q0 0 0.1 0c8.1 0.1 14.7 3.7 15 3.9 0.6 0.3 0.9 1.1 0.8 1.8l-0.8 2.6c0 0.4 0.2 0.8 0.3 0.9 0.3 0.3 0.7 0.5 1.1 0.5h7.1c0.6 0 1.1-0.4 1.3-0.9q0.9-2.8-1.3-5.7zm-1 32.3v6.7c0 0.9-0.7 1.6-1.7 1.6h-41.7c-0.9 0-1.7-0.7-1.7-1.6v-6.7c0-5.8 2.3-11.3 6.5-15.5l5.3-5.3c0.3-0.3 0.8-0.5 1.2-0.5h3.5v-2.2c0-0.9 0.7-1.7 1.7-1.7 0.9 0 1.7 0.8 1.7 1.7v2.2h5.4v-2.2c0-0.9 0.8-1.7 1.7-1.7 0.9 0 1.7 0.8 1.7 1.7v2.2h3.4c0.5 0 0.9 0.2 1.3 0.5l5.3 5.3c4.1 4.2 6.4 9.7 6.4 15.5zm-3.4 5.1v-5.1c0-4.9-1.9-9.6-5.5-13.2l-4.8-4.9h-17.6l-4.8 4.9c-3.6 3.6-5.6 8.3-5.6 13.2v5.1zm-10.2-11.3c0 4.8-4 8.6-8.9 8.6-4.9 0-8.9-3.8-8.9-8.6 0-4.7 4-8.5 8.9-8.5 4.9 0 8.9 3.8 8.9 8.5zm-3.4 0c0-2.9-2.5-5.2-5.5-5.2-3 0-5.5 2.3-5.5 5.2 0 3 2.5 5.3 5.5 5.3 3 0 5.5-2.3 5.5-5.3z"/>
</svg>