<svg version="1.2" xmlns="http://www.w3.org/2000/svg" viewBox="0 0 49 54" width="49" height="54">
	<title>02</title>
	<style>
		.s0 { fill: #1d381d } 
	</style>
	<path fill-rule="evenodd" class="s0" d="m48.3 43.8c0 6.1-12.5 9.2-24.1 9.2-6.2 0-12.1-0.8-16.5-2.3-6.4-2.2-7.7-5-7.7-6.9 0-5.4 9.4-7.8 15-8.6l-5.2-7.8c-2.2-3-3.4-6.4-3.4-10 0-9.4 8-17.1 17.8-17.1 9.8 0 17.7 7.8 17.7 17.1 0 3.6-1.1 6.9-3.3 9.8-0.1 0.3 0.6-0.8-5.2 8 5.5 0.8 14.9 3.2 14.9 8.6zm-24.1-0.6c12.5-18.8 11.7-17.6 11.8-17.8 1.8-2.3 2.7-5.1 2.7-8 0-7.7-6.5-14-14.5-14-8 0-14.5 6.3-14.5 14 0 2.9 0.9 5.8 2.7 8.2q0.1 0 0.1 0.1zm20.9 0.5c0-1.7-4.2-4.6-13.6-5.7l-6 8.9c-0.2 0.4-0.8 0.7-1.3 0.7-0.6 0-1.1-0.3-1.4-0.7l-5.9-8.9c-9.4 1.1-13.7 4-13.7 5.7 0 2.6 8.3 6.2 21 6.2 12.7 0 20.9-3.6 20.9-6.2zm-12.9-26.3c0 4.2-3.6 7.7-8 7.7-4.5 0-8.1-3.5-8.1-7.7 0-4.3 3.6-7.8 8.1-7.8 4.4 0 8 3.5 8 7.8zm-3.2 0c0-2.6-2.1-4.7-4.8-4.7-2.7 0-4.8 2.1-4.8 4.7 0 2.5 2.1 4.6 4.8 4.6 2.7 0 4.8-2.1 4.8-4.6z"/>
</svg>